<?xml version="1.0" encoding="UTF-8" standalone="no"?>
<svg
   xmlns:dc="http://purl.org/dc/elements/1.1/"
   xmlns:cc="http://creativecommons.org/ns#"
   xmlns:rdf="http://www.w3.org/1999/02/22-rdf-syntax-ns#"
   xmlns:svg="http://www.w3.org/2000/svg"
   xmlns="http://www.w3.org/2000/svg"
   xmlns:sodipodi="http://sodipodi.sourceforge.net/DTD/sodipodi-0.dtd"
   xmlns:inkscape="http://www.inkscape.org/namespaces/inkscape"
   height="201.631"
   width="201.631"
   version="1.1"
   viewBox="0 0 201.631 201.631"
   id="svg3336"
   inkscape:version="0.91 r13725"
   sodipodi:docname="SquareNoText.svg"
   inkscape:export-filename="D:\Users\Meehien\Desktop\img.png"
   inkscape:export-xdpi="14.628498"
   inkscape:export-ydpi="14.628498">
  <metadata
     id="metadata3346">
    <rdf:RDF>
      <cc:Work
         rdf:about="">
        <dc:format>image/svg+xml</dc:format>
        <dc:type
           rdf:resource="http://purl.org/dc/dcmitype/StillImage" />
        <dc:title></dc:title>
      </cc:Work>
    </rdf:RDF>
  </metadata>
  <defs
     id="defs3344" />
  <sodipodi:namedview
     pagecolor="#ffffff"
     bordercolor="#666666"
     borderopacity="1"
     objecttolerance="10"
     gridtolerance="10"
     guidetolerance="10"
     inkscape:pageopacity="0"
     inkscape:pageshadow="2"
     inkscape:window-width="1206"
     inkscape:window-height="683"
     id="namedview3342"
     showgrid="false"
     inkscape:zoom="1.9352396"
     inkscape:cx="78.564952"
     inkscape:cy="100.09765"
     inkscape:window-x="185"
     inkscape:window-y="84"
     inkscape:window-maximized="0"
     inkscape:current-layer="svg3336"
     fit-margin-top="0"
     fit-margin-left="0"
     fit-margin-right="0"
     fit-margin-bottom="0" />
  <path
     d="M 100.821,2.3774983 C 92.050997,23.863498 86.760997,37.936498 77.000997,58.783498 c 5.99,6.342 13.33,13.691 25.250003,22.032 -12.820003,-5.276 -21.550003,-10.535 -28.090003,-16.032 -12.49,26.057 -32.08,63.138002 -71.7809995,134.470002 31.2009995,-18.01 55.4009995,-29.1 77.9409995,-33.34 -0.97,-4.16 -1.51,-8.68 -1.47,-13.38 l 0.03,-0.97 c 0.49,-19.99 10.9,-35.38 23.220003,-34.34 12.32,1.04 21.9,18.13 21.4,38.12 -0.09,3.76 -0.51,7.37 -1.25,10.72 22.29,4.37 46.24,15.43 77,33.19 -6.07,-11.17 -11.51,-21.22 -16.68,-30.81 -8.15,-6.32 -16.63,-14.54 -33.97,-23.44 11.91,3.1 20.47,6.66 27.12,10.66 -52.6,-97.938002 -56.87,-110.950002 -74.9,-153.2800017 z"
     id="path3338"
     inkscape:connector-curvature="0"
     style="fill:#1793d1"
     sodipodi:nodetypes="ccccccccscccccccc" />
</svg>
